<?xml version="1.0" standalone="no"?>
<!DOCTYPE svg PUBLIC "-//W3C//DTD SVG 20010904//EN"
 "http://www.w3.org/TR/2001/REC-SVG-20010904/DTD/svg10.dtd">
<svg xmlns="http://www.w3.org/2000/svg"
 width="959.000000pt" height="959.000000pt" viewBox="0 0 959.000000 959.000000"
 preserveAspectRatio="xMidYMid meet">

<g transform="translate(0.000000,959.000000) scale(0.100000,-0.100000)"
fill="#000000" stroke="none">
<path d="M4505 9584 c-235 -18 -605 -73 -815 -123 -212 -50 -401 -109 -630
-198 -180 -70 -189 -74 -430 -191 -131 -64 -410 -225 -465 -269 -6 -4 -37 -26
-70 -48 -100 -66 -168 -117 -350 -263 -98 -78 -255 -221 -325 -296 -47 -50
-106 -111 -132 -136 -55 -54 -194 -212 -228 -261 -13 -19 -47 -61 -74 -94 -27
-33 -73 -96 -102 -140 -29 -44 -71 -105 -94 -135 -22 -30 -53 -80 -68 -110
-15 -30 -47 -82 -69 -115 -75 -110 -265 -502 -308 -635 -10 -30 -24 -64 -31
-75 -10 -17 -116 -330 -145 -430 -21 -74 -60 -252 -83 -385 -14 -80 -30 -167
-36 -195 -5 -27 -19 -144 -31 -260 -18 -183 -20 -248 -15 -505 3 -162 10 -329
16 -370 6 -41 15 -113 20 -160 17 -156 60 -401 94 -530 56 -214 79 -289 111
-370 19 -47 38 -105 44 -130 6 -25 27 -83 46 -130 20 -47 41 -98 47 -115 19
-53 176 -375 224 -459 89 -155 308 -486 384 -579 30 -38 70 -87 88 -110 18
-23 42 -52 53 -65 10 -12 19 -24 19 -27 0 -6 81 -93 215 -233 80 -83 277 -265
355 -329 98 -79 152 -122 176 -140 16 -11 58 -43 94 -70 83 -62 248 -173 257
-173 3 0 14 -6 22 -14 41 -38 328 -191 531 -285 190 -88 189 -87 255 -112 33
-12 89 -32 125 -46 120 -44 379 -120 565 -164 159 -38 469 -83 680 -100 172
-13 740 -7 850 9 39 6 111 16 160 22 180 22 436 72 565 110 60 17 276 80 345
100 59 17 121 41 165 64 25 13 68 31 95 41 28 9 70 28 95 40 25 13 81 38 125
55 75 30 252 119 375 189 70 40 61 34 177 113 54 37 145 99 203 139 58 39 136
96 173 127 38 32 80 66 95 77 99 73 420 384 538 521 107 123 236 281 262 319
15 22 56 81 92 132 36 51 75 110 87 130 13 21 46 76 74 123 143 236 237 423
340 680 194 485 283 861 334 1400 28 295 11 831 -34 1089 -6 31 -20 110 -31
176 -12 66 -30 148 -41 183 -10 34 -24 93 -30 130 -10 57 -41 160 -88 297 -6
17 -20 62 -31 100 -21 69 -68 188 -117 295 -14 30 -31 71 -38 90 -26 69 -204
421 -229 449 -7 9 -16 23 -19 31 -16 38 -138 225 -222 340 -11 15 -35 50 -54
76 -19 27 -48 65 -65 85 -17 20 -53 65 -81 100 -137 173 -420 459 -577 584
-54 42 -98 81 -98 85 0 8 -128 104 -240 179 -36 24 -85 60 -110 80 -48 39
-135 94 -210 131 -25 13 -85 49 -135 80 -49 31 -139 78 -198 103 -60 26 -120
56 -134 67 -14 11 -29 20 -33 20 -7 0 -77 31 -185 81 -11 5 -54 20 -95 33 -41
14 -120 41 -175 61 -254 92 -675 183 -1020 221 -132 15 -661 27 -780 18z m830
-58 c502 -65 909 -173 1345 -358 169 -72 466 -228 605 -318 13 -8 45 -28 72
-44 26 -16 64 -40 83 -55 19 -14 42 -30 51 -36 26 -15 177 -124 191 -138 7 -7
45 -36 83 -65 231 -176 571 -519 772 -778 91 -117 183 -243 183 -250 0 -3 13
-23 28 -43 70 -89 217 -344 317 -546 220 -445 367 -916 439 -1405 36 -242 47
-413 47 -701 0 -386 -32 -697 -108 -1034 -23 -102 -119 -441 -144 -505 -11
-30 -25 -70 -31 -89 -5 -18 -38 -102 -73 -186 -463 -1113 -1319 -2002 -2420
-2516 -480 -223 -994 -357 -1600 -415 -289 -27 -783 -11 -1080 36 -529 85
-971 223 -1415 444 -144 72 -270 142 -353 197 -32 22 -61 39 -63 39 -10 0
-263 175 -359 249 -222 169 -541 470 -721 681 -310 363 -574 786 -757 1210
-108 251 -187 488 -266 795 -36 144 -76 383 -101 615 -28 252 -28 712 0 961
55 492 144 851 325 1314 95 243 296 622 450 847 89 131 271 371 350 463 168
193 449 464 630 608 33 26 67 53 75 60 31 26 210 157 214 157 2 0 46 28 98 63
107 70 98 65 233 145 117 70 330 177 465 234 52 21 104 43 115 48 116 52 449
161 607 199 239 58 438 93 713 125 172 21 820 15 1000 -8z"/>
<path d="M4465 9484 c-669 -50 -1334 -243 -1905 -554 -545 -297 -1086 -755
-1450 -1225 -30 -38 -57 -72 -61 -75 -15 -13 -189 -268 -262 -385 -131 -211
-279 -512 -384 -780 -8 -22 -20 -51 -25 -65 -6 -14 -25 -70 -42 -125 -109
-337 -160 -567 -213 -965 -28 -209 -25 -852 5 -1075 49 -368 101 -599 207
-920 145 -440 332 -812 617 -1227 257 -375 717 -839 1101 -1112 696 -495 1385
-757 2257 -861 267 -32 754 -29 1020 6 385 50 640 107 968 215 239 79 605 242
787 349 41 25 77 45 80 45 2 0 39 23 82 51 43 29 103 68 133 88 491 319 958
780 1302 1282 293 429 503 888 658 1439 47 167 94 417 126 665 25 199 31 756
10 962 -33 322 -102 686 -167 888 -97 302 -105 325 -191 530 -51 122 -119 263
-176 368 -18 31 -46 83 -64 115 -185 336 -460 694 -773 1007 -529 528 -1187
929 -1885 1149 -295 93 -522 142 -870 188 -125 16 -222 21 -495 23 -187 1
-362 1 -390 -1z m552 -534 c378 -22 726 -86 1058 -195 142 -47 372 -133 414
-155 9 -5 85 -43 170 -85 306 -151 530 -299 815 -539 140 -118 342 -316 446
-436 40 -47 83 -96 95 -110 168 -196 389 -542 519 -812 257 -533 381 -1015
417 -1621 27 -468 -39 -990 -182 -1442 -52 -166 -55 -176 -103 -295 -146 -360
-318 -667 -545 -968 -198 -262 -361 -434 -671 -706 -72 -64 -330 -252 -435
-318 -522 -327 -1059 -520 -1690 -608 -358 -49 -896 -35 -1285 35 -524 94
-1096 324 -1535 619 -89 59 -316 229 -365 272 -226 199 -375 346 -505 499
-150 175 -335 436 -435 610 -12 22 -32 56 -43 75 -11 19 -51 98 -89 175 -38
77 -73 147 -78 156 -22 42 -123 311 -164 438 -265 824 -256 1748 24 2581 270
803 781 1502 1480 2026 603 452 1351 734 2105 794 272 21 357 23 582 10z"/>
<path d="M4520 8875 c-8 -2 -69 -9 -135 -15 -207 -20 -423 -58 -620 -110 -44
-12 -93 -25 -110 -29 -144 -38 -566 -202 -650 -253 -29 -17 24 -18 1790 -18
1807 0 1820 0 1788 20 -106 64 -516 217 -736 274 -377 97 -610 127 -1012 132
-165 1 -307 1 -315 -1z"/>
<path d="M2820 8369 c0 -5 23 -48 50 -95 28 -47 50 -86 50 -88 0 -3 20 -39 45
-80 25 -42 45 -79 45 -81 0 -2 22 -42 49 -87 50 -87 294 -516 331 -584 12 -21
25 -46 30 -54 28 -45 103 -178 111 -195 5 -11 13 -27 19 -35 15 -22 140 -242
140 -246 0 -2 14 -27 31 -56 17 -29 62 -107 99 -173 37 -66 76 -136 87 -155
11 -19 86 -152 168 -295 81 -143 156 -275 166 -293 22 -38 23 -52 8 -105 l-10
-39 -65 113 c-35 62 -64 114 -64 115 0 1 -37 66 -83 145 -46 79 -86 151 -90
159 -4 8 -17 31 -28 50 -12 19 -64 112 -116 205 -149 266 -212 377 -383 675
-20 36 -50 87 -65 115 -15 27 -62 110 -105 185 -43 75 -90 158 -105 185 -15
28 -45 79 -65 115 -61 106 -151 266 -235 415 -43 77 -80 142 -82 144 -9 12
-264 -156 -427 -282 -526 -405 -937 -907 -1211 -1482 -40 -82 -89 -193 -109
-245 -21 -52 -42 -105 -47 -118 -67 -168 -161 -525 -198 -752 -78 -486 -64
-1078 35 -1510 90 -388 186 -656 355 -993 246 -489 602 -939 1019 -1285 123
-103 153 -127 190 -152 19 -13 41 -30 49 -38 33 -32 329 -218 335 -211 2 2 20
36 41 74 21 39 60 107 87 153 26 45 48 84 48 86 0 2 56 101 125 221 69 120
125 220 125 221 0 2 31 56 68 121 38 65 80 138 94 163 47 84 330 585 368 650
20 36 58 101 82 145 195 345 266 469 303 530 23 39 55 95 72 125 16 30 42 75
56 100 176 311 218 385 221 388 6 6 56 -29 56 -39 0 -8 -182 -336 -255 -459
-18 -30 -44 -75 -57 -100 -39 -69 -237 -413 -248 -430 -6 -8 -13 -22 -17 -30
-6 -14 -31 -59 -122 -217 -21 -38 -49 -88 -63 -113 -14 -25 -103 -182 -198
-350 -95 -168 -184 -325 -198 -350 -13 -25 -48 -85 -77 -135 -53 -91 -297
-522 -343 -605 -13 -25 -40 -70 -58 -101 -19 -31 -34 -62 -34 -68 0 -8 525
-11 1975 -11 1086 0 1975 3 1975 6 0 3 -22 44 -50 91 -27 47 -50 87 -50 89 0
2 -20 38 -45 80 -25 41 -45 77 -45 79 0 2 -29 54 -65 115 -36 61 -65 113 -65
115 0 3 -16 29 -35 59 -19 30 -35 57 -35 60 0 3 -29 55 -65 117 -36 61 -65
113 -65 115 0 2 -20 38 -45 80 -25 41 -45 77 -45 79 0 2 -31 57 -68 122 -38
65 -122 213 -187 328 -65 116 -144 255 -175 310 -32 55 -67 117 -79 138 -53
94 -68 120 -138 242 -41 72 -78 137 -83 145 -17 28 -107 185 -135 235 -15 28
-58 104 -96 171 -38 66 -69 126 -69 132 0 16 47 45 60 37 5 -3 10 -10 10 -15
0 -5 13 -31 29 -58 16 -27 44 -76 62 -108 18 -33 119 -210 224 -394 105 -184
203 -355 217 -380 14 -25 45 -79 68 -120 24 -41 80 -140 125 -220 133 -234
214 -377 332 -590 42 -74 79 -139 83 -145 4 -5 24 -41 45 -80 21 -38 44 -77
51 -86 8 -8 14 -18 14 -21 0 -4 20 -41 45 -82 25 -42 45 -78 45 -81 0 -2 24
-46 54 -97 96 -168 184 -322 211 -373 15 -27 31 -54 35 -58 10 -12 53 11 190
101 435 286 831 674 1135 1113 105 152 273 445 330 574 15 33 33 74 40 90 53
117 80 187 162 424 21 63 51 178 96 371 21 87 53 289 69 430 20 177 17 709 -5
885 -90 718 -330 1338 -742 1920 -27 39 -52 72 -55 75 -3 3 -28 34 -55 70
-166 217 -466 516 -700 696 -49 38 -97 75 -105 83 -18 17 -293 199 -334 221
-24 13 -29 13 -37 0 -5 -8 -86 -150 -180 -315 -168 -296 -197 -346 -236 -415
-118 -206 -241 -424 -261 -460 -25 -45 -100 -178 -198 -348 -30 -51 -54 -95
-54 -98 0 -2 -10 -21 -23 -42 -13 -20 -37 -62 -54 -92 -17 -30 -68 -120 -113
-200 -45 -80 -91 -161 -102 -180 -11 -19 -42 -73 -68 -120 -27 -47 -62 -110
-79 -140 -31 -56 -33 -56 -49 10 -9 36 7 73 75 182 13 21 23 40 23 42 0 3 40
74 88 158 49 84 115 200 147 258 31 58 66 117 76 132 11 15 19 30 19 33 0 3
35 68 78 143 43 75 91 160 106 187 16 28 45 79 66 115 20 36 48 85 62 110 14
25 74 131 133 235 59 105 117 206 128 225 11 19 30 53 43 75 214 376 311 551
307 557 -7 13 -3943 10 -3943 -3z m2068 -491 c18 -73 90 -371 161 -663 71
-291 171 -699 221 -905 50 -206 129 -528 174 -715 194 -790 250 -1025 245
-1028 -2 -2 -139 -91 -304 -197 -165 -106 -307 -199 -316 -207 -14 -12 -16
-53 -18 -316 l-2 -302 -99 -100 -100 -100 -100 100 -100 100 1 305 c0 302 0
305 -22 320 -12 8 -155 101 -318 207 -227 147 -295 196 -293 210 6 34 54 236
392 1628 195 804 358 1480 407 1683 15 61 30 112 33 112 3 0 20 -60 38 -132z
m-234 -4462 l199 -177 31 29 c17 16 101 91 186 167 85 76 167 150 183 164 l27
25 0 -75 0 -75 -211 -190 c-116 -104 -215 -189 -219 -189 -4 0 -103 85 -219
189 l-211 188 0 76 c0 71 1 74 18 60 9 -9 107 -95 216 -192z m0 -264 c128
-114 200 -171 208 -166 7 5 98 85 203 179 104 94 196 174 203 178 9 6 12 -9
12 -65 l-1 -73 -82 -71 c-45 -40 -140 -124 -211 -188 -72 -64 -136 -114 -143
-112 -7 3 -105 87 -217 188 l-205 183 0 74 c-1 71 0 73 18 60 11 -8 107 -92
215 -187z m80 -335 c56 -49 107 -91 113 -94 7 -3 90 64 185 149 95 85 190 169
211 187 l37 33 0 -74 0 -74 -157 -139 c-86 -77 -179 -161 -207 -187 -28 -26
-57 -48 -63 -48 -11 0 -186 152 -375 326 l-58 53 0 71 0 71 106 -93 c59 -51
152 -133 208 -181z m-94 -182 l210 -186 201 178 c111 98 207 182 215 186 11 7
14 -5 14 -61 l0 -70 -137 -123 c-75 -68 -170 -154 -212 -192 -41 -37 -79 -66
-85 -64 -5 2 -103 86 -217 188 l-208 184 0 73 c-1 39 1 72 4 72 3 0 100 -83
215 -185z m-16 -251 c93 -82 182 -160 198 -172 l29 -24 52 45 c29 24 117 102
197 173 80 71 154 135 163 143 16 12 17 8 17 -60 l0 -74 -211 -188 c-124 -111
-217 -186 -225 -183 -7 3 -106 87 -218 188 l-205 183 -1 74 c0 70 1 73 18 59
9 -8 93 -82 186 -164z m13 -274 c112 -99 208 -180 214 -180 5 0 100 81 211
180 111 98 204 177 208 175 4 -2 8 -33 9 -68 l2 -64 -211 -189 c-116 -104
-215 -189 -221 -189 -5 0 -104 85 -219 188 l-210 189 0 69 c0 38 3 69 6 69 3
0 98 -81 211 -180z m20 -282 c101 -90 188 -163 193 -163 4 0 93 74 196 165
103 91 198 173 211 183 l23 18 0 -70 0 -70 -211 -191 c-116 -104 -214 -190
-219 -190 -4 0 -103 84 -219 187 l-211 188 0 73 0 73 26 -20 c15 -12 109 -94
211 -183z m681 -392 c16 -16 16 -18 -7 -37 -22 -18 -43 -19 -505 -19 -390 0
-486 3 -501 14 -22 16 -14 43 17 56 14 6 203 9 501 7 439 -3 479 -5 495 -21z"/>
<path d="M4767 5676 c-93 -35 -117 -84 -117 -241 l0 -116 85 3 86 3 4 95 c5
102 19 129 56 110 26 -14 32 -58 20 -147 -10 -69 -26 -108 -131 -326 -118
-244 -120 -250 -120 -318 l0 -69 225 0 225 0 0 65 0 65 -121 0 c-66 0 -119 4
-117 8 2 5 55 118 118 253 l115 244 0 105 c-1 153 -28 221 -104 260 -37 19
-179 23 -224 6z"/>
<path d="M2930 1155 c0 -13 307 -148 460 -203 470 -170 910 -247 1410 -247
352 0 598 30 990 120 242 56 696 226 843 316 32 19 11 19 -1835 19 -1028 0
-1868 -2 -1868 -5z"/>
</g>
</svg>
